<svg viewBox="0 0 12 12" width="60px" height="60px" xmlns="http://www.w3.org/2000/svg"><path fill-rule="evenodd" d="M 2,0 9,0 9,1 10,1 10,4 9,4 9,6 11,6 11,10 9,10 9,11 6,11 6,10 5,10 5,11 2,11 2,10 0,10 0,6 2,6 2,4 1,4 1,1 2,1z" fill="#43BF4D"/><path fill-rule="evenodd" d="M 3,1 5,1 5,2 3,2z" fill="#ffffff"/><path fill-rule="evenodd" d="M 6,1 8,1 8,2 6,2z" fill="#ffffff"/><path fill-rule="evenodd" d="M 2,2 3,2 3,3 2,3z" fill="#ffffff"/><path fill-rule="evenodd" d="M 8,2 9,2 9,3 8,3z" fill="#ffffff"/><path fill-rule="evenodd" d="M 4,3 7,3 7,4 6,4 6,6 7,6 7,7 6,7 6,9 5,9 5,7 4,7 4,6 5,6 5,4 4,4z" fill="#ffffff"/><path fill-rule="evenodd" d="M 3,4 4,4 4,5 3,5z" fill="#ffffff"/><path fill-rule="evenodd" d="M 7,4 8,4 8,5 7,5z" fill="#ffffff"/><path fill-rule="evenodd" d="M 1,7 2,7 2,8 3,8 3,9 1,9z" fill="#ffffff"/><path fill-rule="evenodd" d="M 9,7 10,7 10,9 8,9 8,8 9,8z" fill="#ffffff"/><path fill-rule="evenodd" d="M 3,9 4,9 4,10 3,10z" fill="#ffffff"/><path fill-rule="evenodd" d="M 7,9 8,9 8,10 7,10z" fill="#ffffff"/></svg>